<?xml version="1.0" encoding="utf-8"?>
<!-- Generator: Adobe Illustrator 16.0.3, SVG Export Plug-In . SVG Version: 6.00 Build 0)  -->
<!DOCTYPE svg PUBLIC "-//W3C//DTD SVG 1.1//EN" "http://www.w3.org/Graphics/SVG/1.1/DTD/svg11.dtd">
<svg version="1.1" id="Capa_1" xmlns="http://www.w3.org/2000/svg" xmlns:xlink="http://www.w3.org/1999/xlink" x="0px" y="0px"
	 width="140.19px" height="137.3px" viewBox="0 0 140.19 137.3" enable-background="new 0 0 140.19 137.3" xml:space="preserve">
<g id="XMLID_40_">
	<rect id="XMLID_3244_" x="3.669" y="3.292" fill="#DED7CB" width="132.995" height="130.843"/>
	
		<rect id="XMLID_3115_" x="-2.033" y="-2.584" fill="none" stroke="#3E3F41" stroke-width="0.75" stroke-miterlimit="10" width="145.188" height="142.301"/>
	<g id="XMLID_3048_">
		<g id="XMLID_3071_">
			<g id="XMLID_3112_">
				<path id="XMLID_3114_" fill="#3E3F41" d="M72.605,85.44c0,0-0.08-0.157-0.232-0.451c-0.148-0.297-0.382-0.721-0.629-1.293
					c-0.515-1.131-1.238-2.754-1.859-4.793c-0.302-1.021-0.598-2.136-0.89-3.319c-0.146-0.592-0.294-1.201-0.447-1.823
					c-0.173-0.618-0.348-1.254-0.489-1.908c-0.287-1.311-0.295-2.704-0.37-4.103c-0.04-1.401-0.045-2.83,0.105-4.247
					c0.152-1.412,0.409-2.813,0.5-4.223c0.194-1.396,0.644-2.715,1.075-3.978c0.468-1.252,0.937-2.457,1.489-3.551
					c0.512-1.109,0.977-2.183,1.554-3.091C73,47.762,73.6,46.98,74.148,46.303c0.571-0.659,1.089-1.214,1.541-1.646
					c0.438-0.445,0.833-0.742,1.082-0.965c0.254-0.216,0.389-0.331,0.389-0.331l0.221,0.245c0,0-0.119,0.129-0.344,0.37
					c-0.221,0.243-0.563,0.583-0.949,1.058c-0.414,0.451-0.867,1.038-1.389,1.708c-0.249,0.344-0.514,0.709-0.793,1.095
					c-0.26,0.398-0.533,0.817-0.818,1.255c-0.525,0.897-1.225,1.807-1.736,2.897c-0.522,1.082-0.977,2.27-1.369,3.519
					c-0.41,1.248-0.637,2.583-1.009,3.907c-0.431,1.321-0.541,2.724-0.597,4.127c-0.019,1.401-0.042,2.799,0.039,4.174
					c0.084,1.376,0.348,2.707,0.46,4.013c0.117,1.307,0.225,2.587,0.56,3.749c0.27,1.178,0.636,2.262,0.963,3.261
					c0.352,0.993,0.674,1.902,0.96,2.709c0.299,0.802,0.567,1.499,0.806,2.063c0.472,1.141,0.74,1.793,0.74,1.793L72.605,85.44z"/>
			</g>
			<g id="XMLID_3108_">
				<path id="XMLID_3111_" fill="#3E3F41" d="M69.443,76.969c0.295-2.023,1.24-3.921,2.531-5.506
					c1.292-1.584,2.921-2.87,4.666-3.936c-0.284,2.023-0.947,4.016-2.104,5.7s-2.827,3.047-4.777,3.657"/>
				<path id="XMLID_3110_" fill="#3E3F41" d="M69.352,76.953c0.297-2.047,1.25-3.96,2.547-5.554
					c1.291-1.605,2.912-2.926,4.654-4.015l0.301-0.188l-0.047,0.354c-0.267,2.042-0.922,4.066-2.09,5.799
					c-0.586,0.862-1.316,1.627-2.145,2.26c-0.834,0.626-1.781,1.104-2.784,1.365l-0.056-0.179c0.948-0.35,1.823-0.865,2.599-1.495
					c0.782-0.625,1.458-1.375,2.028-2.197c1.148-1.646,1.814-3.604,2.115-5.599l0.254,0.166c-1.742,1.038-3.379,2.286-4.677,3.856
					c-1.279,1.565-2.221,3.444-2.516,5.456L69.352,76.953z"/>
			</g>
			<g id="XMLID_3104_">
				<path id="XMLID_3107_" fill="#3E3F41" d="M69.551,76.575c-1.2,0.195-2.444-0.153-3.485-0.782s-1.897-1.521-2.657-2.471
					c-0.999-1.246-1.869-2.646-2.2-4.208c2.948,1.246,6.025,2.72,7.734,5.426c0.235,0.372,0.442,0.766,0.571,1.187"/>
				<path id="XMLID_3106_" fill="#3E3F41" d="M69.563,76.668c-1.017,0.163-2.071-0.053-2.989-0.492
					c-0.926-0.441-1.725-1.104-2.42-1.84c-0.698-0.736-1.336-1.525-1.891-2.381c-0.549-0.855-0.997-1.795-1.225-2.805l-0.074-0.327
					l0.313,0.13c1.682,0.697,3.367,1.445,4.898,2.485c0.752,0.534,1.462,1.143,2.063,1.852c0.589,0.713,1.121,1.498,1.365,2.409
					l-0.179,0.055c-0.151-0.417-0.378-0.803-0.638-1.166c-0.257-0.366-0.529-0.721-0.836-1.044
					c-0.603-0.656-1.289-1.236-2.026-1.745c-1.469-1.033-3.119-1.803-4.783-2.523l0.239-0.197c0.193,0.964,0.599,1.883,1.114,2.732
					c0.521,0.848,1.13,1.651,1.805,2.389c0.683,0.726,1.461,1.373,2.358,1.802c0.892,0.429,1.9,0.637,2.881,0.481L69.563,76.668z"/>
			</g>
			<g id="XMLID_3100_">
				<path id="XMLID_3103_" fill="#3E3F41" d="M68.529,71.695c3.646-1.963,6.323-5.638,7.073-9.71c-3.9,1.617-6.784,5.463-7.241,9.66
					"/>
				<path id="XMLID_3102_" fill="#3E3F41" d="M68.482,71.614c0.455-0.251,0.892-0.521,1.313-0.811
					c0.417-0.299,0.821-0.617,1.208-0.954c0.77-0.681,1.464-1.446,2.067-2.277c0.301-0.417,0.573-0.852,0.828-1.298
					c0.246-0.45,0.471-0.911,0.674-1.381c0.195-0.475,0.368-0.956,0.518-1.445c0.141-0.492,0.256-0.99,0.348-1.493l0.228,0.185
					c-0.475,0.211-0.937,0.446-1.384,0.709c-0.441,0.272-0.866,0.569-1.273,0.891c-0.401,0.329-0.783,0.68-1.145,1.05
					c-0.355,0.379-0.688,0.775-1,1.188c-0.3,0.423-0.591,0.85-0.854,1.297c-0.255,0.45-0.481,0.916-0.69,1.391
					c-0.201,0.479-0.375,0.967-0.522,1.466c-0.142,0.501-0.259,1.008-0.343,1.525l-0.186-0.021c0.043-0.53,0.114-1.059,0.222-1.583
					c0.126-0.52,0.281-1.031,0.466-1.535c0.198-0.498,0.431-0.98,0.686-1.452c0.267-0.466,0.552-0.92,0.875-1.348
					c0.33-0.424,0.681-0.828,1.052-1.214c0.381-0.378,0.781-0.733,1.199-1.067c0.426-0.325,0.869-0.625,1.33-0.899
					c0.465-0.265,0.945-0.501,1.439-0.705l0.291-0.12l-0.063,0.304c-0.106,0.514-0.237,1.02-0.393,1.52
					c-0.164,0.497-0.352,0.984-0.563,1.462c-0.218,0.475-0.458,0.938-0.719,1.389c-0.27,0.447-0.559,0.88-0.86,1.305
					c-0.614,0.841-1.319,1.616-2.101,2.304c-0.394,0.342-0.803,0.663-1.228,0.965c-0.433,0.297-0.876,0.569-1.328,0.817
					L68.482,71.614z"/>
			</g>
			<g id="XMLID_3096_">
				<path id="XMLID_3099_" fill="#3E3F41" d="M68.088,70.168c-2.01-0.365-3.521-1.997-4.797-3.592
					c-0.792-0.989-1.561-2.011-2.091-3.161c-0.531-1.15-0.812-2.448-0.584-3.694c0.896,0.698,1.787,1.402,2.672,2.114
					c1.04,0.837,2.083,1.693,2.885,2.76c0.943,1.254,1.524,2.778,1.654,4.342"/>
				<path id="XMLID_3098_" fill="#3E3F41" d="M68.068,70.259c-0.56-0.103-1.127-0.319-1.627-0.601
					c-0.507-0.284-0.973-0.635-1.4-1.021c-0.856-0.777-1.579-1.676-2.284-2.578c-0.706-0.9-1.378-1.854-1.829-2.928
					c-0.451-1.068-0.685-2.265-0.484-3.441l0.049-0.288l0.232,0.181l2.392,1.864c0.794,0.622,1.596,1.252,2.326,1.977
					c0.719,0.73,1.349,1.579,1.77,2.524c0.429,0.939,0.669,1.96,0.709,2.981l-0.186,0.016c-0.269-1.982-1.179-3.834-2.605-5.212
					c-0.694-0.71-1.475-1.343-2.261-1.978l-2.36-1.896l0.281-0.106c-0.207,1.086-0.02,2.232,0.393,3.272
					c0.415,1.049,1.048,2.003,1.733,2.911c0.7,0.899,1.416,1.793,2.255,2.557c0.836,0.759,1.822,1.377,2.939,1.583L68.068,70.259z"
					/>
			</g>
			<g id="XMLID_3092_">
				<path id="XMLID_3095_" fill="#3E3F41" d="M68.459,62.097c4.571-0.135,8.889-3.382,10.285-7.736
					c-1.146,0.37-2.35,0.528-3.5,0.886c-3.264,1.018-5.944,3.736-6.916,7.014"/>
				<path id="XMLID_3094_" fill="#3E3F41" d="M68.452,62.003l0.853-0.062l0.833-0.131l0.824-0.197l0.806-0.262l0.783-0.322
					l0.758-0.379l0.729-0.434l0.695-0.485l0.656-0.536L76,58.609l0.566-0.629l0.518-0.668l0.465-0.705l0.408-0.737l0.347-0.768
					l0.282-0.793l0.21,0.21c-1.116,0.372-2.269,0.537-3.354,0.869c-0.258,0.081-0.545,0.185-0.805,0.285
					c-0.258,0.112-0.517,0.215-0.768,0.351c-0.508,0.248-0.986,0.556-1.445,0.885c-0.91,0.669-1.735,1.461-2.404,2.378
					c-0.688,0.902-1.216,1.923-1.603,2.999l-0.179-0.053c0.295-1.128,0.782-2.216,1.463-3.176c0.675-0.962,1.513-1.813,2.468-2.501
					c0.482-0.336,0.984-0.648,1.518-0.899c0.26-0.137,0.539-0.243,0.813-0.357c0.278-0.103,0.536-0.192,0.831-0.281
					c1.128-0.325,2.275-0.48,3.361-0.816l0.328-0.103l-0.118,0.313l-0.309,0.812l-0.374,0.782l-0.436,0.749l-0.491,0.712
					l-0.544,0.672l-0.592,0.629c-0.414,0.399-0.852,0.771-1.307,1.123l-0.707,0.492l-0.742,0.439l-0.771,0.385l-0.797,0.326
					l-0.82,0.265l-0.839,0.199l-0.856,0.132l-0.853,0.061L68.452,62.003z"/>
			</g>
			<g id="XMLID_3088_">
				<path id="XMLID_3091_" fill="#3E3F41" d="M68.229,60.453c-1.863-1.176-3.308-2.999-4.028-5.08
					c-0.72-2.082-0.71-4.408,0.028-6.483c1.065,1.084,2.144,2.187,2.874,3.52c1.221,2.229,1.351,4.888,1.224,7.427"/>
				<path id="XMLID_3090_" fill="#3E3F41" d="M68.177,60.53c-1.879-1.184-3.341-3.022-4.071-5.125
					c-0.746-2.097-0.77-4.451-0.041-6.574l0.09-0.262l0.198,0.198c0.716,0.72,1.44,1.444,2.073,2.26
					c0.319,0.408,0.606,0.832,0.866,1.296c0.241,0.438,0.46,0.934,0.63,1.418c0.658,1.979,0.703,4.079,0.498,6.099l-0.187-0.009
					c-0.009-2.021-0.075-4.062-0.726-5.948c-0.161-0.476-0.344-0.914-0.585-1.37c-0.23-0.426-0.506-0.851-0.807-1.246
					c-0.602-0.799-1.305-1.525-2.01-2.255l0.288-0.064c-0.748,2.029-0.792,4.325-0.098,6.393c0.711,2.062,2.138,3.867,3.985,5.035
					L68.177,60.53z"/>
			</g>
			<g id="XMLID_3084_">
				<path id="XMLID_3087_" fill="#3E3F41" d="M70.447,53.687c4.359-0.157,8.539-2.829,10.512-6.719
					c-2.211,0.343-4.412,0.936-6.346,2.063c-1.932,1.127-3.586,2.827-4.359,4.927"/>
				<path id="XMLID_3086_" fill="#3E3F41" d="M70.441,53.593c0.546-0.026,1.083-0.085,1.612-0.175
					c0.531-0.102,1.055-0.232,1.57-0.393c0.513-0.172,1.014-0.371,1.505-0.598c0.486-0.236,0.958-0.498,1.416-0.785
					c0.454-0.294,0.885-0.619,1.299-0.966c0.407-0.354,0.793-0.73,1.158-1.127c0.356-0.404,0.688-0.827,0.997-1.268
					c0.299-0.447,0.569-0.911,0.813-1.39l0.174,0.239c-2.188,0.36-4.363,0.96-6.261,2.085c-0.944,0.559-1.825,1.23-2.571,2.036
					c-0.752,0.796-1.38,1.717-1.81,2.736l-0.175-0.064c0.342-1.083,0.942-2.081,1.694-2.937c0.761-0.85,1.657-1.578,2.645-2.146
					c1.981-1.134,4.209-1.717,6.428-2.039l0.326-0.048l-0.152,0.287C80.846,47.53,80.557,48,80.24,48.451
					c-0.326,0.445-0.676,0.87-1.049,1.274c-0.382,0.396-0.784,0.771-1.206,1.122c-0.429,0.344-0.876,0.661-1.334,0.963
					c-0.466,0.291-0.945,0.556-1.439,0.795c-0.499,0.229-1.009,0.43-1.53,0.604c-0.523,0.162-1.056,0.294-1.596,0.396
					c-0.546,0.091-1.09,0.148-1.632,0.174L70.441,53.593z"/>
			</g>
			<g id="XMLID_3078_">
				<path id="XMLID_3083_" fill="#3E3F41" d="M70.665,52.835c2.203-3.95,2.142-9.065-0.153-12.962
					c-1.026,1.819-1.936,3.792-1.956,5.881c-0.025,2.497,1.213,4.811,2.418,6.998"/>
				<path id="XMLID_3082_" fill="#3E3F41" d="M70.582,52.792c0.27-0.498,0.508-1.007,0.714-1.522
					c0.197-0.525,0.364-1.06,0.503-1.603c0.127-0.546,0.225-1.098,0.293-1.653c0.057-0.559,0.084-1.117,0.083-1.679
					c-0.011-0.561-0.06-1.118-0.136-1.673c-0.088-0.553-0.205-1.1-0.351-1.64c-0.157-0.537-0.343-1.063-0.558-1.578
					c-0.226-0.511-0.48-1.006-0.763-1.486l0.289-0.003c-1.092,1.978-2.055,4.143-1.863,6.4c0.081,1.104,0.39,2.204,0.819,3.249
					c0.418,1.054,0.936,2.074,1.443,3.103l-0.164,0.09c-0.598-0.979-1.175-1.978-1.642-3.041c-0.457-1.064-0.815-2.191-0.89-3.379
					c-0.037-0.576-0.009-1.181,0.084-1.756c0.09-0.58,0.243-1.147,0.434-1.697c0.383-1.102,0.913-2.137,1.488-3.133l0.147-0.255
					l0.142,0.253c0.279,0.5,0.53,1.014,0.749,1.541c0.209,0.532,0.387,1.073,0.535,1.625c0.137,0.554,0.244,1.112,0.32,1.677
					c0.066,0.565,0.1,1.133,0.115,1.701c0,0.569-0.029,1.137-0.088,1.702c-0.07,0.564-0.17,1.124-0.301,1.678
					c-0.141,0.551-0.313,1.093-0.514,1.625c-0.214,0.532-0.456,1.045-0.725,1.54L70.582,52.792z"/>
			</g>
			<g id="XMLID_3072_">
				<path id="XMLID_3075_" fill="#3E3F41" d="M74.011,47.563c3.112-1.522,5.392-4.636,5.902-8.062
					c-1.655,0.941-3.312,1.999-4.416,3.55c-0.472,0.662-0.831,1.398-1.12,2.157c-0.3,0.787-0.527,1.601-0.678,2.429"/>
				<path id="XMLID_3074_" fill="#3E3F41" d="M73.967,47.481c0.781-0.384,1.488-0.854,2.145-1.412
					c0.654-0.556,1.24-1.189,1.746-1.882c1.004-1.39,1.662-3.024,1.892-4.711l0.246,0.169c-1.522,0.893-3.034,1.865-4.103,3.241
					c-0.532,0.681-0.95,1.448-1.28,2.261c-0.339,0.808-0.612,1.647-0.821,2.507l-0.184-0.033c0.109-0.891,0.328-1.771,0.639-2.618
					c0.321-0.841,0.729-1.671,1.307-2.385c1.159-1.432,2.727-2.398,4.278-3.261l0.301-0.167l-0.055,0.336
					c-0.142,0.868-0.396,1.715-0.745,2.517c-0.348,0.805-0.8,1.559-1.314,2.263c-0.517,0.703-1.115,1.347-1.781,1.911
					c-0.66,0.562-1.408,1.053-2.182,1.43L73.967,47.481z"/>
			</g>
		</g>
		<g id="XMLID_3066_">
			<text transform="matrix(1 0 0 1 23.5063 79.2891)" fill="#3E3F41" font-family="'Butler'" font-size="51.5174">V</text>
		</g>
		<g id="XMLID_3058_">
			<text transform="matrix(1 0 0 1 92.5947 79.2891)" fill="#3E3F41" font-family="'Butler'" font-size="51.5174">T</text>
		</g>
		<g id="XMLID_3049_">
			<g id="XMLID_3054_">
				<text transform="matrix(1 0 0 1 38.8984 100.417)" fill="#3E3F41" font-family="'Butler'" font-size="14">VIDA TINTO</text>
			</g>
			<g id="XMLID_3050_">
				<text transform="matrix(1 0 0 1 34.6836 107.668)"><tspan x="0" y="0" fill="#3E3F41" font-family="'Antonio-Light'" font-size="5.0306">   </tspan><tspan x="3.199" y="0" fill="#3E3F41" font-family="'Antonio-Light'" font-size="8">Wineries and Tourism</tspan></text>
			</g>
		</g>
	</g>
</g>
</svg>
